<?xml version="1.0" encoding="UTF-8"?>
<svg version="1.1" viewBox="0 0 2048 544" width="966" height="257" xmlns="http://www.w3.org/2000/svg">
<path transform="translate(37)" d="m0 0h89l123 2 56 1 155 1 198 2 14 2 10 5 10 9 5 7 4 11-1 410-4 13-7 11-8 8-10 6-13 4-16 1h-40l-5-4-1-30-4-3-4 1-18 18-15 11-12 7-18 7-14 3-13 1h-19l-16-1-18-4-15-5-21-11-14-11-15-15-10-14-9-16-6-14-6-20-4-23-1-11v-38l3-23 5-21 6-16 8-16 10-15 9-11 12-12 15-11 17-9 18-6 14-3 8-1h36l19 3 16 5 16 8 11 8 10 9 7 8 4 1 4-2 1-105h-51l-116-1-214-2h-36l-11 2-11 6-8 8-6 11-2 8v13l4 13 8 11 11 7 13 4 94 1 10 3 9 5 7 6 7 11 3 11v33l-3 11-6 10-7 7-14 7-10 2-93 1-11 4-9 6-6 7-5 10-2 8v11l4 12 6 9 7 6 12 6 12 2 102 1 12 5 8 6 7 8 5 11 1 5v39l-4 13-8 11-10 7-11 4-7 1h-234l-12-3-9-5-8-7-6-10-3-8-1-6v-413l2-11 6-11 7-8 9-6zm479 263-14 3-12 5-10 7-10 10-7 11-5 13-3 16v23l3 17 6 15 7 10 10 10 10 6 12 5 19 3h11l15-2 12-4 10-5 11-9 8-10 7-14 4-16 1-8v-18l-3-18-5-13-6-10-9-10-9-7-10-5-13-4-7-1z" fill="#FE1409"/>
<path transform="translate(1455,84)" d="m0 0h19l16 3 16 8 9 7 9 10 6 10 6 16 3 14 1 9v23l-3 19-5 15-7 13-7 9-12 12-13 8-13 5-13 3-9 1h-16l-15-3-10-4-1 87-1 1h-49v-263h38l3 9 1 9 7-4 8-6 14-7 10-3zm-14 38-12 5-10 8-3 3v86l14 7 5 1h17l13-5 9-7 6-8 4-8 4-16v-27l-4-16-6-10-4-5-9-6-6-2z" fill="#FE1409"/>
<path transform="translate(1064)" d="m0 0h49l1 148v116l-1 1h-35l-3-8-3-11-10 10-11 7-11 4-12 2h-17l-16-3-17-8-9-7-10-10-7-11-7-15-4-16-1-7v-31l3-17 7-19 9-14 7-8 13-9 10-5 15-4 8-1h19l15 3 18 9zm-33 120-14 3-10 6-8 9-5 10-3 10-1 8v20l3 15 5 12 7 9 8 6 11 4h15l9-3 9-7 6-7 1-2v-78l-5-6-10-6-6-2z" fill="#FE1409"/>
<path transform="translate(767,31)" d="m0 0h151l1 1v38l-1 1h-100v53h91v39h-91v62h101l1 1v39h-154v-233z" fill="#FE1409"/>
<path transform="translate(1858,88)" d="m0 0h55l13 35 18 48 11 39v4h2l4-17 9-33 12-36 12-37 2-3h51l-12 35-15 42-23 65-18 50-11 24-8 13-11 14-8 8-12 9-14 8-15 6-4-1-13-25-6-10v-3l16-7 13-9 7-6 9-12 7-15 2-7-1-8-18-42-19-45-23-54-12-29z" fill="#FE1409"/>
<path transform="translate(1646,84)" d="m0 0h22l17 3 14 5 14 8 10 9 9 10 8 15 5 16 2 15v20l-3 19-6 16-8 14-12 13-11 8-16 8-13 4-14 2h-19l-14-2-16-5-12-6-13-10-9-10-8-14-5-13-3-15v-32l4-18 5-12 6-11 9-11 9-8 11-7 13-6 16-4zm2 37-11 4-8 6-7 11-4 11-2 13v22l3 14 4 10 7 9 7 6 8 4 4 1h14l10-3 9-7 6-8 5-12 2-10 1-19-2-17-5-14-6-9-8-7-9-4-4-1z" fill="#FE1409"/>
<path transform="translate(1158,88)" d="m0 0h50l1 119 3 12 6 7 9 4h18l11-4 9-6 6-5 1-126 1-1h49v177h-37l-5-19-6 4-12 9-14 6-11 3-9 1h-17l-12-2-13-5-11-8-8-10-5-10-3-12-1-11z" fill="#FE1409"/>
<path transform="translate(1783)" d="m0 0h49v265h-49z" fill="#FE1409"/>
<path transform="translate(1013,366)" d="m0 0h21v125h-15l-2-4v-5l-11 8-10 3h-10l-13-4-10-9-5-8-3-9-1-5v-17l3-12 6-11 8-7 8-4 4-1h17l10 4 3 2zm-21 55-8 4-6 7-3 10v14l3 10 4 6 8 5h12l8-5 3-4v-40l-8-6-4-1z" fill="#114697"/>
<path transform="translate(1179,407)" d="m0 0h21l3 5 15 42 3 11v4h2l4-16 14-43 2-3h20l1 2-9 25-15 42-9 25-8 15-11 12-12 7-5 1-8-14v-3l10-5 7-6 6-10 1-3v-7l-17-41-15-36z" fill="#164A9A"/>
<path transform="translate(891,406)" d="m0 0h18l10 3 8 5 5 5 4 5 4 9 2 10v10l-3 14-6 11-9 8-10 5-10 2h-11l-12-3-10-6-7-7-5-11-2-7v-17l3-11 5-9 6-7 10-6zm4 15-7 3-5 5-4 10v20l4 10 8 7 3 1h11l8-4 5-8 2-7v-17l-4-11-5-5-8-4z" fill="#134899"/>
<path transform="translate(1305,406)" d="m0 0h18l13 4 9 7 6 8 4 10 1 4v19l-3 10-6 10-7 7-12 6-10 2h-10l-12-3-8-4-8-7-5-9-3-9-1-6v-9l3-14 5-10 9-9 10-5zm4 15-8 4-4 5-3 7-1 5v15l4 11 4 5 8 4h11l8-5 5-8 2-11-1-14-3-8-6-7-8-3z" fill="#144999"/>
<path transform="translate(1683,406)" d="m0 0h19l10 3 9 8 4 9 1 7v57l-1 1h-16l-1-8-13 8-9 2h-11l-11-4-7-6-4-10v-10l4-10 8-7 10-4 15-2h15l-2-12-1-3-7-2h-12l-14 5h-3l-6-11v-3l14-6zm6 48-9 3-4 4-1 2v9l5 5 4 1h7l8-3 6-6v-15z" fill="#164A99"/>
<path transform="translate(811,378)" d="m0 0h15l12 2 10 4 1 2-4 14-2 1-11-4-4-1h-14l-11 3-8 6-6 9-3 9-1 7v11l3 14 6 10 6 5 9 4 5 1h14l16-4 3 9 1 7-10 4-13 2h-14l-14-3-14-7-8-7-7-10-5-13-2-12v-11l3-16 7-14 8-9 9-6 12-5z" fill="#144999"/>
<path transform="translate(1929,406)" d="m0 0h18l11 4 10 9 5 10 2 15v10h-58l4 13 5 5 9 4h18l13-3 3 9 1 5-6 3-16 3h-13l-10-2-10-4-9-7-6-9-3-9-1-5v-15l4-13 6-10 8-7 8-4zm2 15-7 4-5 8-1 7h32l3-1-1-9-4-6-5-3z" fill="#144899"/>
<path transform="translate(1838,406)" d="m0 0h17l10 3 8 6 6 8 3 7 2 15v8l-1 1h-57l3 11 4 6 8 4 3 1h18l13-3 4 14-6 3-16 3h-13l-14-3-9-5-7-6-6-10-3-11v-17l3-10 6-11 10-9 9-4zm1 15-8 6-4 9v4h32l3-1-1-9-4-6-5-3z" fill="#134898"/>
<path transform="translate(1085,406)" d="m0 0h17l9 3 9 6 6 8 4 13 1 17-1 1h-57l3 12 4 5 7 4 4 1h18l13-3 3 10v5l-14 4-8 1h-12l-14-3-11-6-8-9-4-8-2-8v-18l4-13 6-9 9-8 9-4zm1 15-6 4-5 7-2 7 1 1h32l3-1-1-8-5-8-4-2z" fill="#134898"/>
<path transform="translate(1374,407)" d="m0 0h17l3 1 1 55 3 9 4 3 3 1h9l10-5 3-1 1-62 1-1h11l10 1v82l-1 1h-15l-3-8-4 2-8 5-11 3h-11l-11-4-8-7-4-10z" fill="#164A9A"/>
<path transform="translate(1610,406)" d="m0 0h19l11 3 3 1-1 8-2 7-6-1-7-2h-11l-8 3-6 5-4 9-1 6v8l2 9 6 9 10 5h15l10-2 3 9v5l-7 3-11 2h-11l-10-2-10-4-10-9-6-10-3-12v-13l3-12 6-10 7-7 14-7z" fill="#144899"/>
<path transform="translate(1784,406)" d="m0 0h14l5 2 1 3-3 13-3 1-3-1h-12l-8 4-5 7-2 13v42l-1 1h-20v-84h14l2 1 2 11h2l7-8z" fill="#124798"/>
<path transform="translate(1509,406)" d="m0 0h14l5 2 1 2-3 14-3 1-3-1h-13l-8 5-4 6-2 11-1 45h-20v-84h15l2 5 1 7h2l7-8 7-4z" fill="#134898"/>
<path transform="translate(2029,406)" d="m0 0h14l5 2v8l-3 9-5-1h-12l-8 4-4 5-2 5-1 7-1 46h-20v-84h15l2 5 2 9 4-6 8-7z" fill="#134898"/>
</svg>
